<mxfile host="app.diagrams.net" agent="Mozilla/5.0 (Windows NT 10.0; Win64; x64) AppleWebKit/537.36 (KHTML, like Gecko) Chrome/131.0.0.0 Safari/537.36" version="26.0.5" pages="2">
  <diagram name="Page-1" id="GLW8c_1t5__nLKYOCE-P">
    <mxGraphModel dx="1969" dy="2062" grid="1" gridSize="10" guides="1" tooltips="1" connect="1" arrows="1" fold="1" page="1" pageScale="1" pageWidth="850" pageHeight="1100" math="0" shadow="0">
      <root>
        <mxCell id="0" />
        <mxCell id="1" parent="0" />
        <mxCell id="VSiDqnvcc4yCZC9cXvVB-6" value="" style="edgeStyle=orthogonalEdgeStyle;rounded=0;orthogonalLoop=1;jettySize=auto;html=1;" edge="1" parent="1" source="VSiDqnvcc4yCZC9cXvVB-3" target="VSiDqnvcc4yCZC9cXvVB-5">
          <mxGeometry relative="1" as="geometry" />
        </mxCell>
        <mxCell id="VSiDqnvcc4yCZC9cXvVB-3" value="Start Program" style="strokeWidth=2;html=1;shape=mxgraph.flowchart.terminator;whiteSpace=wrap;fillColor=#dae8fc;strokeColor=#6c8ebf;" vertex="1" parent="1">
          <mxGeometry x="230" width="100" height="60" as="geometry" />
        </mxCell>
        <mxCell id="VSiDqnvcc4yCZC9cXvVB-4" value="End Program" style="strokeWidth=2;html=1;shape=mxgraph.flowchart.terminator;whiteSpace=wrap;fillColor=#dae8fc;strokeColor=#6c8ebf;" vertex="1" parent="1">
          <mxGeometry x="60" y="720" width="100" height="30" as="geometry" />
        </mxCell>
        <mxCell id="VSiDqnvcc4yCZC9cXvVB-8" style="edgeStyle=orthogonalEdgeStyle;rounded=0;orthogonalLoop=1;jettySize=auto;html=1;entryX=0.5;entryY=0;entryDx=0;entryDy=0;" edge="1" parent="1" source="VSiDqnvcc4yCZC9cXvVB-5" target="VSiDqnvcc4yCZC9cXvVB-7">
          <mxGeometry relative="1" as="geometry" />
        </mxCell>
        <mxCell id="VSiDqnvcc4yCZC9cXvVB-5" value="Welcome The User" style="rounded=1;whiteSpace=wrap;html=1;absoluteArcSize=1;arcSize=14;strokeWidth=2;fillColor=#f8cecc;strokeColor=#b85450;" vertex="1" parent="1">
          <mxGeometry x="230" y="120" width="100" height="50" as="geometry" />
        </mxCell>
        <mxCell id="VSiDqnvcc4yCZC9cXvVB-10" value="" style="edgeStyle=orthogonalEdgeStyle;rounded=0;orthogonalLoop=1;jettySize=auto;html=1;" edge="1" parent="1" source="VSiDqnvcc4yCZC9cXvVB-7" target="VSiDqnvcc4yCZC9cXvVB-9">
          <mxGeometry relative="1" as="geometry" />
        </mxCell>
        <mxCell id="VSiDqnvcc4yCZC9cXvVB-7" value="Ask for the&amp;nbsp;&lt;div&gt;User&#39;s name&lt;/div&gt;" style="shape=parallelogram;html=1;strokeWidth=2;perimeter=parallelogramPerimeter;whiteSpace=wrap;rounded=1;arcSize=12;size=0.23;fillColor=#fff2cc;strokeColor=#d6b656;" vertex="1" parent="1">
          <mxGeometry x="230" y="220" width="100" height="60" as="geometry" />
        </mxCell>
        <mxCell id="VSiDqnvcc4yCZC9cXvVB-15" value="" style="edgeStyle=orthogonalEdgeStyle;rounded=0;orthogonalLoop=1;jettySize=auto;html=1;" edge="1" parent="1" source="VSiDqnvcc4yCZC9cXvVB-9" target="VSiDqnvcc4yCZC9cXvVB-14">
          <mxGeometry relative="1" as="geometry" />
        </mxCell>
        <mxCell id="VSiDqnvcc4yCZC9cXvVB-9" value="Start the game" style="rounded=1;whiteSpace=wrap;html=1;absoluteArcSize=1;arcSize=14;strokeWidth=2;fillColor=#f8cecc;strokeColor=#b85450;" vertex="1" parent="1">
          <mxGeometry x="230" y="320" width="100" height="50" as="geometry" />
        </mxCell>
        <mxCell id="VSiDqnvcc4yCZC9cXvVB-17" value="" style="edgeStyle=orthogonalEdgeStyle;rounded=0;orthogonalLoop=1;jettySize=auto;html=1;" edge="1" parent="1" source="VSiDqnvcc4yCZC9cXvVB-14" target="VSiDqnvcc4yCZC9cXvVB-16">
          <mxGeometry relative="1" as="geometry" />
        </mxCell>
        <mxCell id="VSiDqnvcc4yCZC9cXvVB-14" value="Generate a&lt;div&gt;random number&lt;/div&gt;" style="rounded=1;whiteSpace=wrap;html=1;absoluteArcSize=1;arcSize=14;strokeWidth=2;fillColor=#f8cecc;strokeColor=#b85450;" vertex="1" parent="1">
          <mxGeometry x="230" y="410" width="100" height="50" as="geometry" />
        </mxCell>
        <mxCell id="VSiDqnvcc4yCZC9cXvVB-20" value="" style="edgeStyle=orthogonalEdgeStyle;rounded=0;orthogonalLoop=1;jettySize=auto;html=1;" edge="1" parent="1" source="VSiDqnvcc4yCZC9cXvVB-16" target="VSiDqnvcc4yCZC9cXvVB-19">
          <mxGeometry relative="1" as="geometry" />
        </mxCell>
        <mxCell id="VSiDqnvcc4yCZC9cXvVB-16" value="Wait for the user to&lt;div&gt;guess a number&amp;nbsp;&lt;/div&gt;" style="shape=parallelogram;html=1;strokeWidth=2;perimeter=parallelogramPerimeter;whiteSpace=wrap;rounded=1;arcSize=12;size=0.23;fillColor=#fff2cc;strokeColor=#d6b656;" vertex="1" parent="1">
          <mxGeometry x="200" y="500" width="160" height="50" as="geometry" />
        </mxCell>
        <mxCell id="VSiDqnvcc4yCZC9cXvVB-22" value="" style="edgeStyle=orthogonalEdgeStyle;rounded=0;orthogonalLoop=1;jettySize=auto;html=1;" edge="1" parent="1" source="VSiDqnvcc4yCZC9cXvVB-19" target="VSiDqnvcc4yCZC9cXvVB-21">
          <mxGeometry relative="1" as="geometry" />
        </mxCell>
        <mxCell id="VSiDqnvcc4yCZC9cXvVB-24" value="false" style="edgeLabel;html=1;align=center;verticalAlign=middle;resizable=0;points=[];" vertex="1" connectable="0" parent="VSiDqnvcc4yCZC9cXvVB-22">
          <mxGeometry x="-0.0056" y="-2" relative="1" as="geometry">
            <mxPoint y="2" as="offset" />
          </mxGeometry>
        </mxCell>
        <mxCell id="VSiDqnvcc4yCZC9cXvVB-26" value="" style="edgeStyle=orthogonalEdgeStyle;rounded=0;orthogonalLoop=1;jettySize=auto;html=1;" edge="1" parent="1" source="VSiDqnvcc4yCZC9cXvVB-19" target="VSiDqnvcc4yCZC9cXvVB-25">
          <mxGeometry relative="1" as="geometry" />
        </mxCell>
        <mxCell id="VSiDqnvcc4yCZC9cXvVB-27" value="true" style="edgeLabel;html=1;align=center;verticalAlign=middle;resizable=0;points=[];" vertex="1" connectable="0" parent="VSiDqnvcc4yCZC9cXvVB-26">
          <mxGeometry x="-0.1611" relative="1" as="geometry">
            <mxPoint as="offset" />
          </mxGeometry>
        </mxCell>
        <mxCell id="VSiDqnvcc4yCZC9cXvVB-19" value="Was the input a number?" style="strokeWidth=2;html=1;shape=mxgraph.flowchart.decision;whiteSpace=wrap;fillColor=#d5e8d4;strokeColor=#82b366;" vertex="1" parent="1">
          <mxGeometry x="220" y="640" width="120" height="80" as="geometry" />
        </mxCell>
        <mxCell id="VSiDqnvcc4yCZC9cXvVB-21" value="Show error message to the user" style="rounded=1;whiteSpace=wrap;html=1;absoluteArcSize=1;arcSize=14;strokeWidth=2;fillColor=#f8cecc;strokeColor=#b85450;" vertex="1" parent="1">
          <mxGeometry x="30" y="595" width="110" height="50" as="geometry" />
        </mxCell>
        <mxCell id="VSiDqnvcc4yCZC9cXvVB-30" value="" style="edgeStyle=orthogonalEdgeStyle;rounded=0;orthogonalLoop=1;jettySize=auto;html=1;" edge="1" parent="1" source="VSiDqnvcc4yCZC9cXvVB-25" target="VSiDqnvcc4yCZC9cXvVB-29">
          <mxGeometry relative="1" as="geometry" />
        </mxCell>
        <mxCell id="VSiDqnvcc4yCZC9cXvVB-25" value="Increment the guess count" style="rounded=1;whiteSpace=wrap;html=1;absoluteArcSize=1;arcSize=14;strokeWidth=2;fillColor=#f8cecc;strokeColor=#b85450;" vertex="1" parent="1">
          <mxGeometry x="420" y="655" width="110" height="50" as="geometry" />
        </mxCell>
        <mxCell id="VSiDqnvcc4yCZC9cXvVB-33" value="" style="edgeStyle=orthogonalEdgeStyle;rounded=0;orthogonalLoop=1;jettySize=auto;html=1;" edge="1" parent="1" source="VSiDqnvcc4yCZC9cXvVB-29" target="VSiDqnvcc4yCZC9cXvVB-31">
          <mxGeometry relative="1" as="geometry" />
        </mxCell>
        <mxCell id="VSiDqnvcc4yCZC9cXvVB-34" value="Too low" style="edgeLabel;html=1;align=center;verticalAlign=middle;resizable=0;points=[];" vertex="1" connectable="0" parent="VSiDqnvcc4yCZC9cXvVB-33">
          <mxGeometry x="-0.3226" y="1" relative="1" as="geometry">
            <mxPoint as="offset" />
          </mxGeometry>
        </mxCell>
        <mxCell id="VSiDqnvcc4yCZC9cXvVB-37" value="" style="edgeStyle=orthogonalEdgeStyle;rounded=0;orthogonalLoop=1;jettySize=auto;html=1;" edge="1" parent="1" source="VSiDqnvcc4yCZC9cXvVB-29" target="VSiDqnvcc4yCZC9cXvVB-36">
          <mxGeometry relative="1" as="geometry" />
        </mxCell>
        <mxCell id="VSiDqnvcc4yCZC9cXvVB-38" value="Too&lt;div&gt;High&lt;/div&gt;" style="edgeLabel;html=1;align=center;verticalAlign=middle;resizable=0;points=[];" vertex="1" connectable="0" parent="VSiDqnvcc4yCZC9cXvVB-37">
          <mxGeometry x="-0.05" relative="1" as="geometry">
            <mxPoint as="offset" />
          </mxGeometry>
        </mxCell>
        <mxCell id="VSiDqnvcc4yCZC9cXvVB-41" value="" style="edgeStyle=orthogonalEdgeStyle;rounded=0;orthogonalLoop=1;jettySize=auto;html=1;" edge="1" parent="1" source="VSiDqnvcc4yCZC9cXvVB-29" target="VSiDqnvcc4yCZC9cXvVB-40">
          <mxGeometry relative="1" as="geometry" />
        </mxCell>
        <mxCell id="VSiDqnvcc4yCZC9cXvVB-29" value="Was the number correct, too high,&amp;nbsp; or too low?" style="strokeWidth=2;html=1;shape=mxgraph.flowchart.decision;whiteSpace=wrap;fillColor=#d5e8d4;strokeColor=#82b366;" vertex="1" parent="1">
          <mxGeometry x="560" y="635" width="140" height="90" as="geometry" />
        </mxCell>
        <mxCell id="VSiDqnvcc4yCZC9cXvVB-31" value="Message the guess was too low" style="rounded=1;whiteSpace=wrap;html=1;absoluteArcSize=1;arcSize=14;strokeWidth=2;fillColor=#f8cecc;strokeColor=#b85450;" vertex="1" parent="1">
          <mxGeometry x="580" y="560" width="100" height="40" as="geometry" />
        </mxCell>
        <mxCell id="VSiDqnvcc4yCZC9cXvVB-32" value="" style="endArrow=classic;html=1;rounded=0;exitX=0.461;exitY=0.022;exitDx=0;exitDy=0;exitPerimeter=0;entryX=-0.002;entryY=0.583;entryDx=0;entryDy=0;entryPerimeter=0;" edge="1" parent="1" source="VSiDqnvcc4yCZC9cXvVB-21" target="VSiDqnvcc4yCZC9cXvVB-14">
          <mxGeometry width="50" height="50" relative="1" as="geometry">
            <mxPoint x="90" y="550" as="sourcePoint" />
            <mxPoint x="140" y="500" as="targetPoint" />
            <Array as="points">
              <mxPoint x="80" y="440" />
            </Array>
          </mxGeometry>
        </mxCell>
        <mxCell id="VSiDqnvcc4yCZC9cXvVB-35" value="" style="endArrow=classic;html=1;rounded=0;exitX=0;exitY=0.5;exitDx=0;exitDy=0;entryX=0.685;entryY=1.032;entryDx=0;entryDy=0;entryPerimeter=0;" edge="1" parent="1" source="VSiDqnvcc4yCZC9cXvVB-31" target="VSiDqnvcc4yCZC9cXvVB-16">
          <mxGeometry width="50" height="50" relative="1" as="geometry">
            <mxPoint x="360" y="560" as="sourcePoint" />
            <mxPoint x="410" y="510" as="targetPoint" />
            <Array as="points">
              <mxPoint x="310" y="580" />
            </Array>
          </mxGeometry>
        </mxCell>
        <mxCell id="VSiDqnvcc4yCZC9cXvVB-36" value="Message the guess was too high" style="rounded=1;whiteSpace=wrap;html=1;absoluteArcSize=1;arcSize=14;strokeWidth=2;fillColor=#f8cecc;strokeColor=#b85450;" vertex="1" parent="1">
          <mxGeometry x="750" y="660" width="90" height="40" as="geometry" />
        </mxCell>
        <mxCell id="VSiDqnvcc4yCZC9cXvVB-39" value="" style="endArrow=classic;html=1;rounded=0;exitX=0.5;exitY=0;exitDx=0;exitDy=0;entryX=1;entryY=0.5;entryDx=0;entryDy=0;" edge="1" parent="1" source="VSiDqnvcc4yCZC9cXvVB-36" target="VSiDqnvcc4yCZC9cXvVB-16">
          <mxGeometry width="50" height="50" relative="1" as="geometry">
            <mxPoint x="710" y="620" as="sourcePoint" />
            <mxPoint x="760" y="570" as="targetPoint" />
            <Array as="points">
              <mxPoint x="795" y="525" />
            </Array>
          </mxGeometry>
        </mxCell>
        <mxCell id="VSiDqnvcc4yCZC9cXvVB-43" value="" style="edgeStyle=orthogonalEdgeStyle;rounded=0;orthogonalLoop=1;jettySize=auto;html=1;" edge="1" parent="1" source="VSiDqnvcc4yCZC9cXvVB-40" target="VSiDqnvcc4yCZC9cXvVB-42">
          <mxGeometry relative="1" as="geometry" />
        </mxCell>
        <mxCell id="VSiDqnvcc4yCZC9cXvVB-40" value="Message winner and how many guesses it took" style="rounded=1;whiteSpace=wrap;html=1;absoluteArcSize=1;arcSize=14;strokeWidth=2;fillColor=#f8cecc;strokeColor=#b85450;" vertex="1" parent="1">
          <mxGeometry x="580" y="770" width="100" height="50" as="geometry" />
        </mxCell>
        <mxCell id="VSiDqnvcc4yCZC9cXvVB-47" value="" style="edgeStyle=orthogonalEdgeStyle;rounded=0;orthogonalLoop=1;jettySize=auto;html=1;" edge="1" parent="1" source="VSiDqnvcc4yCZC9cXvVB-42" target="VSiDqnvcc4yCZC9cXvVB-44">
          <mxGeometry relative="1" as="geometry" />
        </mxCell>
        <mxCell id="VSiDqnvcc4yCZC9cXvVB-42" value="Ask if they wanna play again?" style="shape=parallelogram;html=1;strokeWidth=2;perimeter=parallelogramPerimeter;whiteSpace=wrap;rounded=1;arcSize=12;size=0.23;fillColor=#fff2cc;strokeColor=#d6b656;" vertex="1" parent="1">
          <mxGeometry x="370" y="760" width="120" height="70" as="geometry" />
        </mxCell>
        <mxCell id="VSiDqnvcc4yCZC9cXvVB-44" value="Play again?" style="strokeWidth=2;html=1;shape=mxgraph.flowchart.decision;whiteSpace=wrap;fillColor=#d5e8d4;strokeColor=#82b366;" vertex="1" parent="1">
          <mxGeometry x="240" y="752.5" width="80" height="85" as="geometry" />
        </mxCell>
        <mxCell id="VSiDqnvcc4yCZC9cXvVB-49" value="" style="endArrow=classic;html=1;rounded=0;entryX=0;entryY=0.5;entryDx=0;entryDy=0;exitX=0;exitY=0.5;exitDx=0;exitDy=0;exitPerimeter=0;" edge="1" parent="1" source="VSiDqnvcc4yCZC9cXvVB-44" target="VSiDqnvcc4yCZC9cXvVB-9">
          <mxGeometry width="50" height="50" relative="1" as="geometry">
            <mxPoint x="280" y="840" as="sourcePoint" />
            <mxPoint x="420" y="570" as="targetPoint" />
            <Array as="points">
              <mxPoint x="10" y="795" />
              <mxPoint x="10" y="345" />
            </Array>
          </mxGeometry>
        </mxCell>
        <mxCell id="VSiDqnvcc4yCZC9cXvVB-51" value="Yes" style="edgeLabel;html=1;align=center;verticalAlign=middle;resizable=0;points=[];" vertex="1" connectable="0" parent="VSiDqnvcc4yCZC9cXvVB-49">
          <mxGeometry x="-0.8001" y="1" relative="1" as="geometry">
            <mxPoint as="offset" />
          </mxGeometry>
        </mxCell>
        <mxCell id="VSiDqnvcc4yCZC9cXvVB-50" value="" style="endArrow=classic;html=1;rounded=0;exitX=0.5;exitY=1;exitDx=0;exitDy=0;exitPerimeter=0;entryX=0.5;entryY=1;entryDx=0;entryDy=0;" edge="1" parent="1" source="VSiDqnvcc4yCZC9cXvVB-44" target="VSiDqnvcc4yCZC9cXvVB-42">
          <mxGeometry width="50" height="50" relative="1" as="geometry">
            <mxPoint x="320" y="710" as="sourcePoint" />
            <mxPoint x="370" y="660" as="targetPoint" />
            <Array as="points">
              <mxPoint x="280" y="880" />
              <mxPoint x="430" y="880" />
            </Array>
          </mxGeometry>
        </mxCell>
        <mxCell id="VSiDqnvcc4yCZC9cXvVB-52" value="Invalid input" style="edgeLabel;html=1;align=center;verticalAlign=middle;resizable=0;points=[];" vertex="1" connectable="0" parent="VSiDqnvcc4yCZC9cXvVB-50">
          <mxGeometry x="-0.0466" y="-2" relative="1" as="geometry">
            <mxPoint as="offset" />
          </mxGeometry>
        </mxCell>
        <mxCell id="VSiDqnvcc4yCZC9cXvVB-53" value="" style="endArrow=classic;html=1;rounded=0;entryX=1;entryY=0.5;entryDx=0;entryDy=0;entryPerimeter=0;" edge="1" parent="1" target="VSiDqnvcc4yCZC9cXvVB-4">
          <mxGeometry width="50" height="50" relative="1" as="geometry">
            <mxPoint x="280" y="750" as="sourcePoint" />
            <mxPoint x="350" y="630" as="targetPoint" />
            <Array as="points">
              <mxPoint x="280" y="735" />
            </Array>
          </mxGeometry>
        </mxCell>
        <mxCell id="VSiDqnvcc4yCZC9cXvVB-55" value="No" style="edgeLabel;html=1;align=center;verticalAlign=middle;resizable=0;points=[];" vertex="1" connectable="0" parent="VSiDqnvcc4yCZC9cXvVB-53">
          <mxGeometry x="-0.0595" y="-2" relative="1" as="geometry">
            <mxPoint as="offset" />
          </mxGeometry>
        </mxCell>
        <mxCell id="VSiDqnvcc4yCZC9cXvVB-54" value="Khondokar Tausif Abrar&lt;div&gt;Jan 10, 2025&lt;/div&gt;" style="rounded=0;whiteSpace=wrap;html=1;" vertex="1" parent="1">
          <mxGeometry x="610" y="60" width="150" height="60" as="geometry" />
        </mxCell>
      </root>
    </mxGraphModel>
  </diagram>
  <diagram id="Ria8-yFYI9uPYm6kZeYt" name="Page-2">
    <mxGraphModel dx="989" dy="564" grid="1" gridSize="10" guides="1" tooltips="1" connect="1" arrows="1" fold="1" page="1" pageScale="1" pageWidth="850" pageHeight="1100" math="0" shadow="0">
      <root>
        <mxCell id="0" />
        <mxCell id="1" parent="0" />
        <mxCell id="zsn1jiHarrCaxmRhMZCs-1" value="" style="edgeStyle=orthogonalEdgeStyle;rounded=0;orthogonalLoop=1;jettySize=auto;html=1;" edge="1" parent="1" source="APQxBKCz7OniqQJ-Yc50-1">
          <mxGeometry relative="1" as="geometry">
            <mxPoint x="280" y="90" as="targetPoint" />
          </mxGeometry>
        </mxCell>
        <mxCell id="APQxBKCz7OniqQJ-Yc50-1" value="Start" style="strokeWidth=2;html=1;shape=mxgraph.flowchart.start_1;whiteSpace=wrap;fillColor=#dae8fc;strokeColor=#6c8ebf;" vertex="1" parent="1">
          <mxGeometry x="230" y="10" width="100" height="40" as="geometry" />
        </mxCell>
        <mxCell id="APQxBKCz7OniqQJ-Yc50-4" value="" style="edgeStyle=orthogonalEdgeStyle;rounded=0;orthogonalLoop=1;jettySize=auto;html=1;" edge="1" parent="1" target="APQxBKCz7OniqQJ-Yc50-3">
          <mxGeometry relative="1" as="geometry">
            <mxPoint x="330" y="120" as="sourcePoint" />
          </mxGeometry>
        </mxCell>
        <mxCell id="APQxBKCz7OniqQJ-Yc50-5" value="No" style="edgeLabel;html=1;align=center;verticalAlign=middle;resizable=0;points=[];" vertex="1" connectable="0" parent="APQxBKCz7OniqQJ-Yc50-4">
          <mxGeometry x="-0.2905" y="1" relative="1" as="geometry">
            <mxPoint x="9" y="1" as="offset" />
          </mxGeometry>
        </mxCell>
        <mxCell id="APQxBKCz7OniqQJ-Yc50-3" value="Go shopping for missing items" style="rounded=1;whiteSpace=wrap;html=1;absoluteArcSize=1;arcSize=14;strokeWidth=2;" vertex="1" parent="1">
          <mxGeometry x="390" y="90" width="100" height="60" as="geometry" />
        </mxCell>
        <mxCell id="l5PnomMENzgE7Xvc3_1W-1" style="edgeStyle=orthogonalEdgeStyle;rounded=0;orthogonalLoop=1;jettySize=auto;html=1;exitX=0.5;exitY=0;exitDx=0;exitDy=0;entryX=1;entryY=0.5;entryDx=0;entryDy=0;entryPerimeter=0;" edge="1" parent="1" source="APQxBKCz7OniqQJ-Yc50-3" target="APQxBKCz7OniqQJ-Yc50-1">
          <mxGeometry relative="1" as="geometry" />
        </mxCell>
        <mxCell id="m5gj1vtc1GyIMq31KxQP-2" value="" style="edgeStyle=orthogonalEdgeStyle;rounded=0;orthogonalLoop=1;jettySize=auto;html=1;" edge="1" parent="1" source="l5PnomMENzgE7Xvc3_1W-2" target="m5gj1vtc1GyIMq31KxQP-1">
          <mxGeometry relative="1" as="geometry" />
        </mxCell>
        <mxCell id="m5gj1vtc1GyIMq31KxQP-10" value="Yes" style="edgeLabel;html=1;align=center;verticalAlign=middle;resizable=0;points=[];" vertex="1" connectable="0" parent="m5gj1vtc1GyIMq31KxQP-2">
          <mxGeometry x="-0.704" relative="1" as="geometry">
            <mxPoint as="offset" />
          </mxGeometry>
        </mxCell>
        <mxCell id="l5PnomMENzgE7Xvc3_1W-2" value="Check if I have all ingredients" style="strokeWidth=2;html=1;shape=mxgraph.flowchart.decision;whiteSpace=wrap;fillColor=#d5e8d4;strokeColor=#82b366;" vertex="1" parent="1">
          <mxGeometry x="215" y="90" width="130" height="60" as="geometry" />
        </mxCell>
        <mxCell id="m5gj1vtc1GyIMq31KxQP-4" style="edgeStyle=orthogonalEdgeStyle;rounded=0;orthogonalLoop=1;jettySize=auto;html=1;exitX=0.25;exitY=1;exitDx=0;exitDy=0;" edge="1" parent="1" source="m5gj1vtc1GyIMq31KxQP-1" target="m5gj1vtc1GyIMq31KxQP-3">
          <mxGeometry relative="1" as="geometry" />
        </mxCell>
        <mxCell id="m5gj1vtc1GyIMq31KxQP-12" style="edgeStyle=orthogonalEdgeStyle;rounded=0;orthogonalLoop=1;jettySize=auto;html=1;exitX=0.75;exitY=1;exitDx=0;exitDy=0;entryX=0.5;entryY=0;entryDx=0;entryDy=0;" edge="1" parent="1" source="m5gj1vtc1GyIMq31KxQP-1" target="m5gj1vtc1GyIMq31KxQP-9">
          <mxGeometry relative="1" as="geometry" />
        </mxCell>
        <mxCell id="m5gj1vtc1GyIMq31KxQP-1" value="&lt;font style=&quot;font-size: 12px;&quot; face=&quot;Arial, Helvetica, sans-serif&quot;&gt;&lt;span style=&quot;background-color: rgb(255, 255, 255);&quot;&gt;Pre-heat oven to 175&amp;nbsp;degrees celcius.&lt;/span&gt;&lt;/font&gt;" style="rounded=1;whiteSpace=wrap;html=1;absoluteArcSize=1;arcSize=14;strokeWidth=2;" vertex="1" parent="1">
          <mxGeometry x="230" y="180" width="100" height="50" as="geometry" />
        </mxCell>
        <mxCell id="m5gj1vtc1GyIMq31KxQP-6" value="" style="edgeStyle=orthogonalEdgeStyle;rounded=0;orthogonalLoop=1;jettySize=auto;html=1;" edge="1" parent="1" source="m5gj1vtc1GyIMq31KxQP-3" target="m5gj1vtc1GyIMq31KxQP-5">
          <mxGeometry relative="1" as="geometry" />
        </mxCell>
        <mxCell id="m5gj1vtc1GyIMq31KxQP-3" value="Cream together butter, granulated sugar, brown sugar" style="rounded=1;whiteSpace=wrap;html=1;absoluteArcSize=1;arcSize=14;strokeWidth=2;" vertex="1" parent="1">
          <mxGeometry x="80" y="270" width="110" height="60" as="geometry" />
        </mxCell>
        <mxCell id="m5gj1vtc1GyIMq31KxQP-11" value="" style="edgeStyle=orthogonalEdgeStyle;rounded=0;orthogonalLoop=1;jettySize=auto;html=1;" edge="1" parent="1" source="m5gj1vtc1GyIMq31KxQP-5" target="m5gj1vtc1GyIMq31KxQP-7">
          <mxGeometry relative="1" as="geometry" />
        </mxCell>
        <mxCell id="m5gj1vtc1GyIMq31KxQP-5" value="Beat both eggs one after another." style="rounded=1;whiteSpace=wrap;html=1;absoluteArcSize=1;arcSize=14;strokeWidth=2;" vertex="1" parent="1">
          <mxGeometry x="80" y="360" width="110" height="40" as="geometry" />
        </mxCell>
        <mxCell id="m5gj1vtc1GyIMq31KxQP-14" value="" style="edgeStyle=orthogonalEdgeStyle;rounded=0;orthogonalLoop=1;jettySize=auto;html=1;" edge="1" parent="1" source="m5gj1vtc1GyIMq31KxQP-7" target="m5gj1vtc1GyIMq31KxQP-13">
          <mxGeometry relative="1" as="geometry" />
        </mxCell>
        <mxCell id="m5gj1vtc1GyIMq31KxQP-7" value="Stir in the vanilla extract." style="rounded=1;whiteSpace=wrap;html=1;absoluteArcSize=1;arcSize=14;strokeWidth=2;" vertex="1" parent="1">
          <mxGeometry x="80" y="420" width="110" height="50" as="geometry" />
        </mxCell>
        <mxCell id="m5gj1vtc1GyIMq31KxQP-15" style="edgeStyle=orthogonalEdgeStyle;rounded=0;orthogonalLoop=1;jettySize=auto;html=1;exitX=0.5;exitY=1;exitDx=0;exitDy=0;entryX=0.5;entryY=0;entryDx=0;entryDy=0;" edge="1" parent="1" source="m5gj1vtc1GyIMq31KxQP-9" target="m5gj1vtc1GyIMq31KxQP-13">
          <mxGeometry relative="1" as="geometry" />
        </mxCell>
        <mxCell id="m5gj1vtc1GyIMq31KxQP-9" value="Combine flour, baking soda, baking powder, and salt.&amp;nbsp;" style="rounded=1;whiteSpace=wrap;html=1;absoluteArcSize=1;arcSize=14;strokeWidth=2;" vertex="1" parent="1">
          <mxGeometry x="370" y="270" width="110" height="60" as="geometry" />
        </mxCell>
        <mxCell id="Glk3QuI6mSAzSOJim_G_-2" value="" style="edgeStyle=orthogonalEdgeStyle;rounded=0;orthogonalLoop=1;jettySize=auto;html=1;" edge="1" parent="1" source="m5gj1vtc1GyIMq31KxQP-13">
          <mxGeometry relative="1" as="geometry">
            <mxPoint x="439.9999999999998" y="445" as="targetPoint" />
          </mxGeometry>
        </mxCell>
        <mxCell id="Glk3QuI6mSAzSOJim_G_-14" value="" style="edgeStyle=orthogonalEdgeStyle;rounded=0;orthogonalLoop=1;jettySize=auto;html=1;" edge="1" parent="1" source="m5gj1vtc1GyIMq31KxQP-13" target="Glk3QuI6mSAzSOJim_G_-13">
          <mxGeometry relative="1" as="geometry" />
        </mxCell>
        <mxCell id="m5gj1vtc1GyIMq31KxQP-13" value="Gradually blend dry ingredients to the wet mixture." style="rounded=1;whiteSpace=wrap;html=1;" vertex="1" parent="1">
          <mxGeometry x="260" y="415" width="120" height="60" as="geometry" />
        </mxCell>
        <mxCell id="Glk3QuI6mSAzSOJim_G_-4" value="" style="edgeStyle=orthogonalEdgeStyle;rounded=0;orthogonalLoop=1;jettySize=auto;html=1;" edge="1" parent="1" target="Glk3QuI6mSAzSOJim_G_-3">
          <mxGeometry relative="1" as="geometry">
            <mxPoint x="559.9999999999998" y="445" as="sourcePoint" />
          </mxGeometry>
        </mxCell>
        <mxCell id="Glk3QuI6mSAzSOJim_G_-5" value="No" style="edgeLabel;html=1;align=center;verticalAlign=middle;resizable=0;points=[];" vertex="1" connectable="0" parent="Glk3QuI6mSAzSOJim_G_-4">
          <mxGeometry x="-0.1944" y="2" relative="1" as="geometry">
            <mxPoint as="offset" />
          </mxGeometry>
        </mxCell>
        <mxCell id="Glk3QuI6mSAzSOJim_G_-7" value="" style="edgeStyle=orthogonalEdgeStyle;rounded=0;orthogonalLoop=1;jettySize=auto;html=1;" edge="1" parent="1" target="Glk3QuI6mSAzSOJim_G_-6">
          <mxGeometry relative="1" as="geometry">
            <mxPoint x="499.9999999999998" y="475" as="sourcePoint" />
          </mxGeometry>
        </mxCell>
        <mxCell id="Glk3QuI6mSAzSOJim_G_-8" value="Yes" style="edgeLabel;html=1;align=center;verticalAlign=middle;resizable=0;points=[];" vertex="1" connectable="0" parent="Glk3QuI6mSAzSOJim_G_-7">
          <mxGeometry x="-0.2583" y="-2" relative="1" as="geometry">
            <mxPoint x="2" y="8" as="offset" />
          </mxGeometry>
        </mxCell>
        <mxCell id="Glk3QuI6mSAzSOJim_G_-3" value="Wait till preheated to the perfect temperature." style="whiteSpace=wrap;html=1;rounded=1;arcSize=14;strokeWidth=2;" vertex="1" parent="1">
          <mxGeometry x="620" y="415" width="120" height="60" as="geometry" />
        </mxCell>
        <mxCell id="Glk3QuI6mSAzSOJim_G_-19" value="" style="edgeStyle=orthogonalEdgeStyle;rounded=0;orthogonalLoop=1;jettySize=auto;html=1;" edge="1" parent="1" source="Glk3QuI6mSAzSOJim_G_-6" target="Glk3QuI6mSAzSOJim_G_-18">
          <mxGeometry relative="1" as="geometry" />
        </mxCell>
        <mxCell id="Glk3QuI6mSAzSOJim_G_-6" value="&lt;span style=&quot;font-family: Arial, Helvetica, sans-serif; text-align: left; background-color: rgb(255, 255, 255);&quot;&gt;&lt;font style=&quot;font-size: 12px;&quot;&gt;Drop rounded spoonfuls of dough onto ungreased baking sheets&lt;/font&gt;&lt;/span&gt;" style="whiteSpace=wrap;html=1;rounded=1;arcSize=14;strokeWidth=2;" vertex="1" parent="1">
          <mxGeometry x="440" y="520.5" width="120" height="60" as="geometry" />
        </mxCell>
        <mxCell id="Glk3QuI6mSAzSOJim_G_-17" value="" style="edgeStyle=orthogonalEdgeStyle;rounded=0;orthogonalLoop=1;jettySize=auto;html=1;" edge="1" parent="1" source="Glk3QuI6mSAzSOJim_G_-13" target="Glk3QuI6mSAzSOJim_G_-6">
          <mxGeometry relative="1" as="geometry" />
        </mxCell>
        <mxCell id="Glk3QuI6mSAzSOJim_G_-13" value="Fold in the chocolate chips." style="whiteSpace=wrap;html=1;rounded=1;" vertex="1" parent="1">
          <mxGeometry x="260" y="528" width="120" height="45" as="geometry" />
        </mxCell>
        <mxCell id="Glk3QuI6mSAzSOJim_G_-25" value="" style="edgeStyle=orthogonalEdgeStyle;rounded=0;orthogonalLoop=1;jettySize=auto;html=1;" edge="1" parent="1" source="Glk3QuI6mSAzSOJim_G_-18">
          <mxGeometry relative="1" as="geometry">
            <mxPoint x="499.9999999999998" y="750" as="targetPoint" />
          </mxGeometry>
        </mxCell>
        <mxCell id="Glk3QuI6mSAzSOJim_G_-18" value="Bake for 10-12 minutes." style="rounded=1;whiteSpace=wrap;html=1;arcSize=14;strokeWidth=2;" vertex="1" parent="1">
          <mxGeometry x="440" y="620" width="120" height="60" as="geometry" />
        </mxCell>
        <mxCell id="Glk3QuI6mSAzSOJim_G_-21" value="" style="edgeStyle=orthogonalEdgeStyle;rounded=0;orthogonalLoop=1;jettySize=auto;html=1;" edge="1" parent="1" source="Glk3QuI6mSAzSOJim_G_-20" target="Glk3QuI6mSAzSOJim_G_-6">
          <mxGeometry relative="1" as="geometry" />
        </mxCell>
        <mxCell id="Glk3QuI6mSAzSOJim_G_-20" value="&lt;br&gt;&lt;span style=&quot;color: rgb(0, 0, 0); font-family: Helvetica; font-size: 12px; font-style: normal; font-variant-ligatures: normal; font-variant-caps: normal; font-weight: 400; letter-spacing: normal; orphans: 2; text-align: center; text-indent: 0px; text-transform: none; widows: 2; word-spacing: 0px; -webkit-text-stroke-width: 0px; white-space: normal; background-color: rgb(251, 251, 251); text-decoration-thickness: initial; text-decoration-style: initial; text-decoration-color: initial; float: none; display: inline !important;&quot;&gt;Check if pre-heated properly&lt;/span&gt;" style="strokeWidth=2;html=1;shape=mxgraph.flowchart.decision;whiteSpace=wrap;" vertex="1" parent="1">
          <mxGeometry x="440" y="400" width="120" height="90" as="geometry" />
        </mxCell>
        <mxCell id="Glk3QuI6mSAzSOJim_G_-23" style="edgeStyle=orthogonalEdgeStyle;rounded=0;orthogonalLoop=1;jettySize=auto;html=1;exitX=0.5;exitY=0;exitDx=0;exitDy=0;entryX=0.5;entryY=0;entryDx=0;entryDy=0;entryPerimeter=0;" edge="1" parent="1" source="Glk3QuI6mSAzSOJim_G_-3" target="Glk3QuI6mSAzSOJim_G_-20">
          <mxGeometry relative="1" as="geometry">
            <Array as="points">
              <mxPoint x="680" y="380" />
              <mxPoint x="500" y="380" />
            </Array>
          </mxGeometry>
        </mxCell>
        <mxCell id="Glk3QuI6mSAzSOJim_G_-28" value="" style="edgeStyle=orthogonalEdgeStyle;rounded=0;orthogonalLoop=1;jettySize=auto;html=1;" edge="1" parent="1" source="Glk3QuI6mSAzSOJim_G_-26" target="Glk3QuI6mSAzSOJim_G_-27">
          <mxGeometry relative="1" as="geometry" />
        </mxCell>
        <mxCell id="Glk3QuI6mSAzSOJim_G_-29" value="No" style="edgeLabel;html=1;align=center;verticalAlign=middle;resizable=0;points=[];" vertex="1" connectable="0" parent="Glk3QuI6mSAzSOJim_G_-28">
          <mxGeometry x="-0.3186" y="-1" relative="1" as="geometry">
            <mxPoint as="offset" />
          </mxGeometry>
        </mxCell>
        <mxCell id="Glk3QuI6mSAzSOJim_G_-26" value="Check if the edges are golden brown." style="strokeWidth=2;html=1;shape=mxgraph.flowchart.decision;whiteSpace=wrap;" vertex="1" parent="1">
          <mxGeometry x="430" y="750" width="140" height="80" as="geometry" />
        </mxCell>
        <mxCell id="Glk3QuI6mSAzSOJim_G_-27" value="Bake till golden brown" style="whiteSpace=wrap;html=1;strokeWidth=2;" vertex="1" parent="1">
          <mxGeometry x="440" y="880" width="120" height="60" as="geometry" />
        </mxCell>
      </root>
    </mxGraphModel>
  </diagram>
</mxfile>
